# xmcd
#
# Track frame offsets:
#	150
#	19266
#	33949
#	49490
#	70367
#	90187
#	106070
#	121137
#	141273
#	157783
#	194144
#	213230
#
# Disc length: 3072 seconds
#
# Revision: 1
# Processed by: cddbd v1.5.2PL0 Copyright (c) Steve Scherf et al.
# Submitted via: audiograbber 1.83.01
#
DISCID=a00bfe0c
DTITLE=Eric Church - The Outsiders
DYEAR=2014
DGENRE=Country
TTITLE0=The Outsiders
TTITLE1=A Man Who Was Gonna Die Young
TTITLE2=Cold One
TTITLE3=Roller Coaster Ride
TTITLE4=Talladega
TTITLE5=Broke Record
TTITLE6=Like A Wrecking Ball
TTITLE7=That's Damn Rock and Roll
TTITLE8=Dark Side
TTITLE9=Devil, Devil (Prelude: Princess Of Darkness)
TTITLE10=Give Me Back My Hometown
TTITLE11=The Joint
EXTD=
EXTT0=
EXTT1=
EXTT2=
EXTT3=
EXTT4=
EXTT5=
EXTT6=
EXTT7=
EXTT8=
EXTT9=
EXTT10=
EXTT11=
PLAYORDER=
